<?xml version="1.0" encoding="UTF-8" standalone="no"?>
<svg width="240px" height="523px" viewBox="0 0 240 523" version="1.1" xmlns="http://www.w3.org/2000/svg" xmlns:xlink="http://www.w3.org/1999/xlink">
    <!-- Generator: Sketch 3.8.3 (29802) - http://www.bohemiancoding.com/sketch -->
    <title>Group 4</title>
    <desc>Created with Sketch.</desc>
    <defs></defs>
    <g id="Rate-Estimate-Calculator" stroke="none" stroke-width="1" fill="none" fill-rule="evenodd">
        <g id="Group-4">
            <path d="M60,215 L182,259" id="Path-65" stroke="#297A68" stroke-width="10"></path>
            <path d="M60,278 L182,322" id="Path-65-Copy" stroke="#297A68" stroke-width="10"></path>
            <path d="M60,215 L182,259" id="Path-65" stroke="#42A18C" stroke-width="10" transform="translate(121.000000, 237.000000) scale(-1, 1) translate(-121.000000, -237.000000) "></path>
            <path d="M60,278 L182,322" id="Path-65-Copy-2" stroke="#42A18C" stroke-width="10" transform="translate(121.000000, 300.000000) scale(-1, 1) translate(-121.000000, -300.000000) "></path>
            <rect id="Rectangle-76" fill="#58CCB2" x="48" y="46" width="144" height="165"></rect>
            <rect id="Rectangle-89" fill="#51BBA3" x="61" y="69" width="118" height="132"></rect>
            <rect id="Rectangle-76-Copy" fill="#58CCB2" x="48" y="211" width="13" height="185"></rect>
            <rect id="Rectangle-76-Copy-2" fill="#51BAA3" x="179" y="46" width="13" height="350"></rect>
            <rect id="Rectangle-79" fill="#51BAA3" x="61" y="386" width="118" height="10"></rect>
            <rect id="Rectangle-79-Copy-6" fill="#42A18C" x="81" y="376" width="78" height="10"></rect>
            <rect id="Rectangle-79-Copy-7" fill="#297A68" x="101" y="366" width="38" height="10"></rect>
            <rect id="Rectangle-79-Copy-2" fill="#42A18C" x="61" y="128" width="118" height="10"></rect>
            <rect id="Rectangle-79-Copy-4" fill="#42A18C" x="61" y="263" width="118" height="10"></rect>
            <rect id="Rectangle-79-Copy-5" fill="#42A18C" x="61" y="326" width="118" height="10"></rect>
            <rect id="Rectangle-79-Copy-3" fill="#42A18C" x="61" y="59" width="118" height="10"></rect>
            <rect id="Rectangle-79-Copy-8" fill="#42A18C" x="71" y="0" width="98" height="10"></rect>
            <rect id="Rectangle-79-Copy" fill="#58CCB2" x="0" y="396" width="240" height="66"></rect>
            <rect id="Rectangle-87" fill="#42A18C" x="112" y="22" width="20" height="24"></rect>
            <text id="NYC" font-family="HelveticaNeue-Heavy, HelveticaNeue" font-size="28" font-weight="600" fill="#FFFFFF">
                <tspan x="92" y="107">NYC</tspan>
            </text>
            <rect id="Rectangle-89-Copy" fill="#51BBA3" x="122" y="396" width="118" height="66"></rect>
            <polygon id="Path-69" fill="#297A68" points="1 462 62 523 179.004273 523 239 462"></polygon>
            <path d="M156,463 L168,449 L182,455 L194,439 C194,439 198,447 202,451 C206,455 215,448 215,448 L224,458 L234,462 L220,467 L163,470 L156,463 Z" id="Path-70" fill="#297A68"></path>
        </g>
    </g>
</svg>