<?xml version="1.0" encoding="UTF-8" standalone="no"?>
<svg width="28px" height="28px" viewBox="0 0 28 28" version="1.1" xmlns="http://www.w3.org/2000/svg" xmlns:xlink="http://www.w3.org/1999/xlink">
    <!-- Generator: Sketch 3.6.1 (26313) - http://www.bohemiancoding.com/sketch -->
    <title>Page 1</title>
    <desc>Created with Sketch.</desc>
    <defs>
        <path id="path-1" d="M8,19.2028 L8,0.8848 L0.2783,0.8848 L0.2783,19.2028 L8,19.2028 L8,19.2028 Z"></path>
        <path id="path-3" d="M19.2022,-3.55271368e-15 L0.7982,0 L0.7982,7.7217 L19.2022,7.7217 L19.2022,0 L19.2022,-3.55271368e-15 Z"></path>
        <path id="path-5" d="M0.8851,8 L19.1151,8 L19.1151,0.3501 L0.8851,0.3501 L0.8851,8 L0.8851,8 Z"></path>
    </defs>
    <g id="Page-3" stroke="none" stroke-width="1" fill="none" fill-rule="evenodd">
        <g id="Page-1">
            <g id="Group-3" transform="translate(20.000000, 4.000000)">
                <mask id="mask-2" fill="white">
                    <use xlink:href="#path-1"></use>
                </mask>
                <g id="Clip-2"></g>
                <path d="M4.6123,0.8848 L0.3493,5.1478 C1.3813,6.4938 2.0003,8.1728 2.0003,9.9998 C2.0003,11.8698 1.3533,13.5858 0.2783,14.9478 L4.5323,19.2028 C6.6853,16.7408 8.0003,13.5278 8.0003,9.9998 C8.0003,6.5148 6.7183,3.3348 4.6123,0.8848" id="Fill-1" fill="#171F93" mask="url(#mask-2)"></path>
            </g>
            <g id="Group-6" transform="translate(4.000000, 0.000000)">
                <mask id="mask-4" fill="white">
                    <use xlink:href="#path-3"></use>
                </mask>
                <g id="Clip-5"></g>
                <path d="M5.0522,7.7217 C6.4142,6.6467 8.1302,5.9997 10.0002,5.9997 C11.8702,5.9997 13.5862,6.6467 14.9482,7.7217 L19.2022,3.4677 C16.7412,1.3147 13.5272,-0.0003 10.0002,-0.0003 C6.4732,-0.0003 3.2602,1.3147 0.7982,3.4667 L5.0522,7.7217 Z" id="Fill-4" fill="#171F93" mask="url(#mask-4)"></path>
            </g>
            <g id="Group-9" transform="translate(4.000000, 20.000000)">
                <mask id="mask-6" fill="white">
                    <use xlink:href="#path-5"></use>
                </mask>
                <g id="Clip-8"></g>
                <path d="M14.8521,0.3501 C13.5051,1.3811 11.8271,2.0001 10.0001,2.0001 C8.1731,2.0001 6.4941,1.3801 5.1471,0.3501 L0.8851,4.6121 C3.3351,6.7191 6.5151,8.0001 10.0001,8.0001 C13.4841,8.0001 16.6641,6.7191 19.1151,4.6131 L14.8521,0.3501 Z" id="Fill-7" fill="#171F93" mask="url(#mask-6)"></path>
            </g>
            <path d="M7.7212,18.9478 C6.6462,17.5858 6.0002,15.8698 6.0002,13.9998 C6.0002,12.1728 6.6192,10.4938 7.6502,9.1478 L3.3882,4.8848 C1.2812,7.3348 0.0002,10.5148 0.0002,13.9998 C0.0002,17.5268 1.3142,20.7398 3.4672,23.2018 L7.7212,18.9478 Z" id="Fill-10" fill="#171F93"></path>
        </g>
    </g>
</svg>