<?xml version="1.0" encoding="UTF-8" standalone="no"?>
<svg width="3180px" height="2119px" viewBox="0 0 3180 2119" version="1.1" xmlns="http://www.w3.org/2000/svg" xmlns:xlink="http://www.w3.org/1999/xlink">
    <!-- Generator: Sketch 3.6.1 (26313) - http://www.bohemiancoding.com/sketch -->
    <title>Group</title>
    <desc>Created with Sketch.</desc>
    <defs>
        <rect id="path-1" x="0" y="0" width="3180" height="2119"></rect>
    </defs>
    <g id="Page-2" stroke="none" stroke-width="1" fill="none" fill-rule="evenodd">
        <g id="Group">
            <mask id="mask-2" fill="white">
                <use xlink:href="#path-1"></use>
            </mask>
            <use id="Mask" xlink:href="#path-1"></use>
            <g mask="url(#mask-2)" id="Combined-Shape" fill="#172093" opacity="0.965659981">
                <g transform="translate(-793.000000, 0.000000)">
                    <path d="M132.339198,38.0977021 C66.1708813,38.0977021 66.1708813,38.097702 0,38.097702 L4102.66644,38.0977021 C4036.48274,38.0977021 4036.48274,0.54 3970.29903,0.54 C3904.11533,0.54 3904.11533,38.0977021 3837.93419,38.0977021 C3771.75818,38.0977021 3771.75818,0.54 3705.5873,0.54 C3639.40873,0.54 3639.40873,38.0977021 3573.23016,38.0977021 C3507.05927,38.0977021 3507.05927,0.54 3440.88583,0.54 C3374.71238,0.54 3374.71238,38.0977021 3308.5415,38.0977021 C3242.36293,38.0977021 3242.36293,0.54 3176.18948,0.54 C3110.01604,0.54 3110.01604,38.0977021 3043.84259,38.0977021 C2977.66915,38.0977021 2977.66915,0.54 2911.49057,0.54 C2845.31713,0.54 2845.31713,38.0977021 2779.14368,38.0977021 C2712.9728,38.0977021 2712.9728,0.54 2646.80448,0.54 C2580.6336,0.54 2580.6336,38.0977021 2514.46528,38.0977021 C2448.29697,38.0977021 2448.29697,0.54 2382.12865,0.54 C2315.95777,0.54 2315.95777,38.0977021 2249.78945,38.0977021 C2183.62113,38.0977021 2183.62113,0.54 2117.45282,0.54 C2051.27937,0.54 2051.27937,38.0977021 1985.10849,38.0977021 C1918.94017,38.0977021 1918.94017,0.54 1852.77442,0.54 C1786.60354,0.54 1786.60354,38.0977021 1720.43266,38.0977021 C1654.26178,38.0977021 1654.26178,0.54 1588.08833,0.54 C1521.91745,0.54 1521.91745,38.0977021 1455.74913,38.0977021 C1389.57825,38.0977021 1389.57825,0.54 1323.40993,0.54 C1257.23905,0.54 1257.23905,38.0977021 1191.06561,38.0977021 C1124.89473,38.0977021 1124.89473,0.54 1058.72641,0.54 C992.552963,0.54 992.552963,38.0977021 926.382082,38.0977021 C860.213765,38.0977021 860.213765,0.54 794.042883,0.54 C727.874566,0.54 727.874566,38.0977021 661.706249,38.0977021 C595.535368,38.0977021 595.535368,0.54 529.367051,0.54 C463.196169,0.54 463.196169,38.0977021 397.025288,38.0977021 C330.854407,38.0977021 330.854407,0.54 264.683525,0.54 C198.51008,0.54 198.51008,38.0977021 132.339198,38.0977021 L56.8630137,38.0977021 L56.8630137,2119.54 L4151,2119.54 L4151,38.0977021 L132.339198,38.0977021 Z"></path>
                </g>
            </g>
        </g>
    </g>
</svg>
